<svg width="3" height="19" viewBox="0 0 3 19" fill="none" xmlns="http://www.w3.org/2000/svg">
<path d="M1.5 19C1.0875 19 0.73425 18.8463 0.441 18.5389C0.147 18.2315 0 17.8629 0 17.4316C0 17.0003 0.147 16.631 0.441 16.3236C0.73425 16.0162 1.0875 15.8633 1.5 15.8633C1.9125 15.8633 2.26575 16.0162 2.55975 16.3236C2.853 16.631 3 17.0003 3 17.4316C3 17.8629 2.853 18.2315 2.55975 18.5389C2.26575 18.8463 1.9125 19 1.5 19ZM1.5 11.068C1.0875 11.068 0.73425 10.9143 0.441 10.6077C0.147 10.3003 0 9.93091 0 9.49961C0 9.06831 0.147 8.69896 0.441 8.39234C0.73425 8.08494 1.0875 7.93124 1.5 7.93124C1.9125 7.93124 2.26575 8.08494 2.55975 8.39234C2.853 8.69896 3 9.06831 3 9.49961C3 9.93091 2.853 10.3003 2.55975 10.6077C2.26575 10.9143 1.9125 11.068 1.5 11.068ZM1.5 3.13674C1.0875 3.13674 0.73425 2.98304 0.441 2.67642C0.147 2.36902 0 1.99967 0 1.56837C0 1.13707 0.147 0.767716 0.441 0.4611C0.73425 0.1537 1.0875 0 1.5 0C1.9125 0 2.26575 0.1537 2.55975 0.4611C2.853 0.767716 3 1.13707 3 1.56837C3 1.99967 2.853 2.36902 2.55975 2.67642C2.26575 2.98304 1.9125 3.13674 1.5 3.13674Z" fill="#9B8F84"/>
</svg>
